# xmcd
#
# Track frame offsets: 
#        150
#        13350
#        31177
#        45805
#        57994
#        75825
#        97723
#        118667
#        133775
#        151133
#
# Disc length: 2333 seconds
#
# Revision: 0
# Processed by: cddbd v1.5.2PL0 Copyright (c) Steve Scherf et al.
# Submitted via: ExactAudioCopy v1.1
#
DISCID=68091b0a
DTITLE=Kataklysm - MƎDITATIONS
DYEAR=2018
DGENRE=Death Metal
TTITLE0=Guillotine
TTITLE1=Outsider
TTITLE2=The Last Breath I'll Take Is Yours
TTITLE3=Narcissist
TTITLE4=Born to Kill and Destined to Die
TTITLE5=In Limbic Resonance
TTITLE6=and Then I Saw Blood
TTITLE7=What Doesn't Break Doesn't Heal
TTITLE8=Bend the Arc and Cut the Cord
TTITLE9=Achilles' Heel
EXTD=
EXTT0=
EXTT1=
EXTT2=
EXTT3=
EXTT4=
EXTT5=
EXTT6=
EXTT7=
EXTT8=
EXTT9=
PLAYORDER=
